nColumns=19
nRows=123
DataType=double
version=3
OpenSimVersion=4.1
endheader
time	ground_force_calcn_r_vx	ground_force_calcn_r_vy	ground_force_calcn_r_vz	ground_force_calcn_r_px	ground_force_calcn_r_py	ground_force_calcn_r_pz	ground_force_calcn_r_mx	ground_force_calcn_r_my	ground_force_calcn_r_mz	ground_force_calcn_l_vx	ground_force_calcn_l_vy	ground_force_calcn_l_vz	ground_force_calcn_l_px	ground_force_calcn_l_py	ground_force_calcn_l_pz	ground_force_calcn_l_mx	ground_force_calcn_l_my	ground_force_calcn_l_mz
4.05	0	0	0	0	0	0	0	0	0	-125.463	1630.44	72.1176	0.797302	0	-0.440123	0.343296	-4.46127	-0.19733
4.05833	0	0	0	0	0	0	0	0	0	-55.9967	1620.94	57.2881	0.7605	0	-0.443491	0.130924	-3.78987	-0.133943
4.06667	0	0	0	0	0	0	0	0	0	7.38922	1580.62	43.8059	0.72569	0	-0.444355	-0.0127962	-2.73722	-0.0758603
4.075	0	0	0	0	0	0	0	0	0	62.7503	1508.38	36.2957	0.692995	0	-0.442536	-0.0621187	-1.4932	-0.0359303
4.08333	0	0	0	0	0	0	0	0	0	116.484	1397.17	27.7636	0.659212	0	-0.440722	-0.018867	-0.226301	-0.00449688
4.09167	0	0	0	0	0	0	0	0	0	167.074	1245.33	13.5197	0.622183	0	-0.440643	0.12444	0.927549	0.0100698
4.1	0	0	0	0	0	0	0	0	0	202.247	1061.3	-2.20313	0.58515	0	-0.440954	0.352115	1.84774	-0.00383567
4.10833	0	0	0	0	0	0	0	0	0	212.611	858.35	-13.5422	0.553482	0	-0.43932	0.606623	2.44904	-0.0386385
4.11667	0	0	0	0	0	0	0	0	0	204	651.27	-20.4065	0.527835	0	-0.435216	0.84193	2.68786	-0.08422
4.125	0	0	0	0	0	0	0	0	0	183.637	455.266	-25.9141	0.504586	0	-0.430271	1.02604	2.54372	-0.144791
4.13333	0	0	0	0	0	0	0	0	0	149.107	285.465	-30.1002	0.47948	0	-0.427135	1.07287	2.054	-0.216579
4.14167	0	0	0	0	0	0	0	0	0	101.462	156.85	-29.7756	0.447644	0	-0.426554	0.883252	1.36542	-0.259204
4.15	0	0	0	0	0	0	0	0	0	55.3346	76.1667	-23.646	0.402517	0	-0.41906	0.478366	0.65846	-0.20442
4.15833	0	0	0	0	0	0	0	0	0	26.3852	36.7206	-14.7341	0.364799	0	-0.370411	0.000883342	0.00122936	-0.000493278
4.16667	0	0	0	0	0	0	0	0	0	12.824	20.578	-7.26584	0.401587	0	-0.280755	-0.436995	-0.70122	0.247593
4.175	0	0	0	0	0	0	0	0	0	5.03819	11.9594	-2.97097	0.504849	0	-0.202336	-0.667317	-1.58404	0.393511
4.18333	0	0	0	0	0	0	0	0	0	0	0	0	0	0	0	0	0	0
4.19167	0	0	0	0	0	0	0	0	0	0	0	0	0	0	0	0	0	0
4.2	0	0	0	0	0	0	0	0	0	0	0	0	0	0	0	0	0	0
4.20833	0	0	0	0	0	0	0	0	0	0	0	0	0	0	0	0	0	0
4.21667	0	0	0	0	0	0	0	0	0	0	0	0	0	0	0	0	0	0
4.225	0	0	0	0	0	0	0	0	0	0	0	0	0	0	0	0	0	0
4.23333	-1.76516	11.5968	0.0243713	0.505132	0	-0.131729	-0.0918318	0.603317	0.00126791	0	0	0	0	0	0	0	0	0
4.24167	-7.23174	25.2499	-2.66099	0.77444	0	-0.252407	-0.325064	1.13497	-0.11961	0	0	0	0	0	0	0	0	0
4.25	-26.4442	63.3083	-7.09369	0.890396	0	-0.327408	-0.465068	1.11339	-0.124755	0	0	0	0	0	0	0	0	0
4.25833	-62.648	159.626	-11.4336	0.936065	0	-0.357147	-0.246186	0.627278	-0.0449302	0	0	0	0	0	0	0	0	0
4.26667	-106.335	358.561	-11.3447	0.957723	0	-0.364087	0.135496	-0.456895	0.014456	0	0	0	0	0	0	0	0	0
4.275	-139.656	659.989	-2.83811	0.964356	0	-0.363001	0.422269	-1.99557	0.00858141	0	0	0	0	0	0	0	0	0
4.28333	-155.907	967.59	11.9269	0.959725	0	-0.359774	0.563384	-3.49646	-0.0430987	0	0	0	0	0	0	0	0	0
4.29167	-172.17	1171.22	22.2347	0.948201	0	-0.356869	0.651415	-4.43139	-0.0841266	0	0	0	0	0	0	0	0	0
4.3	-202.527	1274.78	17.579	0.931604	0	-0.355669	0.713716	-4.4924	-0.0619495	0	0	0	0	0	0	0	0	0
4.30833	-230.66	1354.46	0.491395	0.909286	0	-0.355958	0.634548	-3.72614	-0.00135183	0	0	0	0	0	0	0	0	0
4.31667	-231.381	1454.98	-14.8327	0.881292	0	-0.355263	0.388965	-2.44591	0.0249346	0	0	0	0	0	0	0	0	0
4.325	-201.05	1566.37	-18.5021	0.850163	0	-0.352439	0.131242	-1.0225	0.0120779	0	0	0	0	0	0	0	0	0
4.33333	-149.834	1654.68	-14.3608	0.818613	0	-0.34932	-0.0194997	0.215343	-0.00186894	0	0	0	0	0	0	0	0	0
4.34167	-85.0043	1695.13	-11.4186	0.786752	0	-0.347652	-0.0517866	1.03271	-0.00695645	0	0	0	0	0	0	0	0	0
4.35	-12.885	1684.29	-11.317	0.753532	0	-0.347072	-0.0099691	1.30313	-0.00875597	0	0	0	0	0	0	0	0	0
4.35833	59.0554	1631.73	-8.69894	0.718662	0	-0.346319	0.0363339	1.00393	-0.00535203	0	0	0	0	0	0	0	0	0
4.36667	125.512	1544.43	-0.425737	0.682869	0	-0.34519	0.018615	0.229057	-6.3142e-05	0	0	0	0	0	0	0	0	0
4.375	182.678	1423.16	10.9567	0.647385	0	-0.344564	-0.104196	-0.811738	-0.00624947	0	0	0	0	0	0	0	0	0
4.38333	224.673	1268.87	21.6967	0.613133	0	-0.344954	-0.325655	-1.83918	-0.0314486	0	0	0	0	0	0	0	0	0
4.39167	247.492	1087.74	30.1645	0.580471	0	-0.345782	-0.588164	-2.585	-0.0716859	0	0	0	0	0	0	0	0	0
4.4	251.88	889.092	35.6823	0.549544	0	-0.346068	-0.811698	-2.86516	-0.114989	0	0	0	0	0	0	0	0	0
4.40833	239.342	683.426	37.2001	0.519785	0	-0.345252	-0.920863	-2.62947	-0.143127	0	0	0	0	0	0	0	0	0
4.41667	209.703	486.529	34.0234	0.490049	0	-0.343171	-0.8578	-1.99017	-0.139174	0	0	0	0	0	0	0	0	0
4.425	165.454	316.418	26.9677	0.459527	0	-0.33964	-0.622248	-1.19	-0.101421	0	0	0	0	0	0	0	0	0
4.43333	114.46	185.199	18.3941	0.429657	0	-0.333219	-0.305064	-0.493602	-0.0490248	0	0	0	0	0	0	0	0	0
4.44167	67.2338	96.6676	11.018	0.409188	0	-0.318438	-0.0519639	-0.0747128	-0.0085156	0	0	0	0	0	0	0	0	0
4.45	32.3641	45.9109	6.38446	0.42764	0	-0.282098	0.0165449	0.0234701	0.0032638	0	0	0	0	0	0	0	0	0
4.45833	12.399	21.3941	4.29279	0.54178	0	-0.208655	-0.117335	-0.202458	-0.0406237	0	0	0	0	0	0	0	0	0
4.46667	3.4765	10.8122	3.61737	0.719203	0	-0.105877	-0.252795	-0.786216	-0.263039	0	0	0	0	0	0	0	0	0
4.475	0	0	0	0	0	0	0	0	0	0	0	0	0	0	0	0	0	0
4.48333	0	0	0	0	0	0	0	0	0	0	0	0	0	0	0	0	0	0
4.49167	0	0	0	0	0	0	0	0	0	0	0	0	0	0	0	0	0	0
4.5	0	0	0	0	0	0	0	0	0	0	0	0	0	0	0	0	0	0
4.50833	0	0	0	0	0	0	0	0	0	0	0	0	0	0	0	0	0	0
4.51667	0	0	0	0	0	0	0	0	0	0	0	0	0	0	0	0	0	0
4.525	0	0	0	0	0	0	0	0	0	0	0	0	0	0	0	0	0	0
4.53333	0	0	0	0	0	0	0	0	0	-0.444847	10.6144	0.389868	0.758685	0	-0.102081	-0.0250373	0.597407	0.0219429
4.54167	0	0	0	0	0	0	0	0	0	-3.89751	16.8481	-2.04574	0.756478	0	-0.28483	-0.354366	1.53185	-0.186001
4.55	0	0	0	0	0	0	0	0	0	-16.499	41.5458	-5.26324	0.869405	0	-0.416904	-0.738579	1.8598	-0.235609
4.55833	0	0	0	0	0	0	0	0	0	-45.3071	115.569	-7.26393	0.944818	0	-0.452734	-0.689292	1.75824	-0.110512
4.56667	0	0	0	0	0	0	0	0	0	-91.3757	282.859	-3.78336	0.979909	0	-0.457129	-0.334989	1.03698	-0.01387
4.575	0	0	0	0	0	0	0	0	0	-140.904	561.269	9.27121	0.992545	0	-0.451303	0.0792293	-0.315597	-0.00521312
4.58333	0	0	0	0	0	0	0	0	0	-173.252	879.936	29.5772	0.989476	0	-0.442878	0.395889	-2.01069	-0.0675852
4.59167	0	0	0	0	0	0	0	0	0	-184.034	1111.47	45.5852	0.975799	0	-0.437237	0.60653	-3.66313	-0.150237
4.6	0	0	0	0	0	0	0	0	0	-187.723	1213.46	47.0905	0.955354	0	-0.438319	0.777254	-5.02426	-0.194975
4.60833	0	0	0	0	0	0	0	0	0	-194.522	1254.89	40.4079	0.931571	0	-0.444964	0.941093	-6.0711	-0.195492
4.61667	0	0	0	0	0	0	0	0	0	-199.408	1305.61	43.5207	0.908224	0	-0.449702	1.05586	-6.91314	-0.23044
4.625	0	0	0	0	0	0	0	0	0	-190.971	1375.6	62.3503	0.883604	0	-0.448426	1.05617	-7.60779	-0.344829
4.63333	0	0	0	0	0	0	0	0	0	-162.771	1435.9	81.5582	0.853772	0	-0.445781	0.914812	-8.07013	-0.458377
4.64167	0	0	0	0	0	0	0	0	0	-117.56	1460.75	84.3412	0.818596	0	-0.446873	0.657048	-8.16421	-0.471386
4.65	0	0	0	0	0	0	0	0	0	-64.0002	1449.38	72.9411	0.781301	0	-0.450632	0.345527	-7.82497	-0.393798
4.65833	0	0	0	0	0	0	0	0	0	-15.0037	1414.14	62.1062	0.746202	0	-0.452607	0.0751998	-7.08778	-0.311282
4.66667	0	0	0	0	0	0	0	0	0	27.1713	1359.76	58.0749	0.714452	0	-0.451375	-0.120494	-6.03	-0.257539
4.675	0	0	0	0	0	0	0	0	0	72.6787	1281.07	53.297	0.683365	0	-0.449396	-0.266627	-4.69969	-0.195524
4.68333	0	0	0	0	0	0	0	0	0	122.862	1171.73	40.3959	0.650154	0	-0.448773	-0.330257	-3.14964	-0.108586
4.69167	0	0	0	0	0	0	0	0	0	163.704	1029.79	22.4551	0.615355	0	-0.448861	-0.241455	-1.51888	-0.0331201
4.7	0	0	0	0	0	0	0	0	0	183.969	859.726	7.33152	0.581261	0	-0.44788	-0.00567322	-0.0265121	-0.000226088
4.70833	0	0	0	0	0	0	0	0	0	187.052	673.754	-2.14558	0.549007	0	-0.444663	0.306888	1.1054	-0.00352015
4.71667	0	0	0	0	0	0	0	0	0	178.367	489.464	-8.64695	0.519068	0	-0.439283	0.620414	1.7025	-0.0300766
4.725	0	0	0	0	0	0	0	0	0	154.441	323.378	-14.169	0.491889	0	-0.434037	0.814014	1.70443	-0.0746809
4.73333	0	0	0	0	0	0	0	0	0	113.944	189.587	-17.3003	0.470155	0	-0.43133	0.742648	1.23566	-0.112757
4.74167	0	0	0	0	0	0	0	0	0	67.9458	97.403	-16.1767	0.45924	0	-0.427569	0.375815	0.538746	-0.0894752
4.75	0	0	0	0	0	0	0	0	0	33.8585	46.6171	-11.533	0.460473	0	-0.401265	-0.157173	-0.216399	0.053537
4.75833	0	0	0	0	0	0	0	0	0	16.7408	24.714	-6.04287	0.452582	0	-0.32893	-0.690752	-1.01974	0.249338
4.76667	0	0	0	0	0	0	0	0	0	8.07315	15.1423	-1.89164	0.420468	0	-0.242369	-1.05661	-1.98181	0.247577
4.775	0	0	0	0	0	0	0	0	0	0	0	0	0	0	0	0	0	0
4.78333	0	0	0	0	0	0	0	0	0	0	0	0	0	0	0	0	0	0
4.79167	0	0	0	0	0	0	0	0	0	0	0	0	0	0	0	0	0	0
4.8	0	0	0	0	0	0	0	0	0	0	0	0	0	0	0	0	0	0
4.80833	0	0	0	0	0	0	0	0	0	0	0	0	0	0	0	0	0	0
4.81667	0	0	0	0	0	0	0	0	0	0	0	0	0	0	0	0	0	0
4.825	0	0	0	0	0	0	0	0	0	0	0	0	0	0	0	0	0	0
4.83333	0.626162	12.176	-0.854294	0.539734	0	-0.121521	-0.0478861	-0.931167	0.0653326	0	0	0	0	0	0	0	0	0
4.84167	-4.95879	26.446	-5.11681	0.808175	0	-0.202028	0.12072	-0.643822	0.124567	0	0	0	0	0	0	0	0	0
4.85	-24.5188	72.1994	-12.9823	0.970027	0	-0.261745	0.242051	-0.712758	0.128162	0	0	0	0	0	0	0	0	0
4.85833	-64.5644	201.715	-23.6255	1.0071	0	-0.284254	0.406321	-1.26945	0.148682	0	0	0	0	0	0	0	0	0
4.86667	-123.001	471.994	-33.2831	1.00844	0	-0.291045	0.603274	-2.31496	0.163241	0	0	0	0	0	0	0	0	0
4.875	-183.273	857.769	-36.773	1.00293	0	-0.292828	0.785184	-3.67488	0.157544	0	0	0	0	0	0	0	0	0
4.88333	-223.894	1208.08	-33.0753	0.992686	0	-0.292812	0.925575	-4.99418	0.136733	0	0	0	0	0	0	0	0	0
4.89167	-249.331	1395.98	-29.7113	0.97732	0	-0.292148	1.04045	-5.82534	0.123984	0	0	0	0	0	0	0	0	0
4.9	-282.649	1454.07	-36.5725	0.957882	0	-0.291741	1.13068	-5.81672	0.146301	0	0	0	0	0	0	0	0	0
4.90833	-312.577	1489.94	-53.8059	0.933888	0	-0.291898	1.03371	-4.92732	0.17794	0	0	0	0	0	0	0	0	0
4.91667	-309.368	1565.06	-70.8758	0.903488	0	-0.291677	0.668966	-3.38424	0.153259	0	0	0	0	0	0	0	0	0
4.925	-266.893	1667.34	-78.7649	0.868377	0	-0.290598	0.235117	-1.46883	0.0693872	0	0	0	0	0	0	0	0	0
4.93333	-200.138	1748.89	-78.4902	0.832876	0	-0.289112	-0.0577047	0.504248	-0.0226306	0	0	0	0	0	0	0	0	0
4.94167	-129.546	1771.1	-76.2185	0.799591	0	-0.287808	-0.161794	2.21199	-0.0951916	0	0	0	0	0	0	0	0	0
4.95	-62.4243	1728.81	-74.2942	0.767591	0	-0.286616	-0.12292	3.40421	-0.146294	0	0	0	0	0	0	0	0	0
4.95833	5.83178	1640.47	-70.0756	0.73515	0	-0.284949	0.0139849	3.93392	-0.168044	0	0	0	0	0	0	0	0	0
4.96667	74.3384	1520.54	-61.011	0.702	0	-0.282819	0.183852	3.76056	-0.150891	0	0	0	0	0	0	0	0	0
4.975	137.692	1371.1	-47.6132	0.667698	0	-0.281026	0.297562	2.96305	-0.102896	0	0	0	0	0	0	0	0	0
4.98333	187.308	1192.42	-32.196	0.632245	0	-0.280151	0.272612	1.73547	-0.0468588	0	0	0	0	0	0	0	0	0
4.99167	216.204	991.063	-16.8669	0.597541	0	-0.279993	0.0754726	0.345961	-0.00588792	0	0	0	0	0	0	0	0	0
5	222.023	777.979	-3.16198	0.566105	0	-0.27992	-0.264993	-0.928549	0.00377395	0	0	0	0	0	0	0	0	0
5.00833	206.412	566.829	7.32879	0.539034	0	-0.279296	-0.678154	-1.86228	-0.0240783	0	0	0	0	0	0	0	0	0
5.01667	174.589	376.334	12.9888	0.516226	0	-0.277605	-1.07805	-2.32377	-0.0802029	0	0	0	0	0	0	0	0	0
5.025	131.064	223.897	13.352	0.496708	0	-0.274768	-1.36464	-2.33123	-0.139021	0	0	0	0	0	0	0	0	0
5.03333	83.6321	117.699	10.1024	0.475432	0	-0.271198	-1.47075	-2.06985	-0.17766	0	0	0	0	0	0	0	0	0
5.04167	43.8061	55.083	6.22071	0.451584	0	-0.264465	-1.4255	-1.79246	-0.202429	0	0	0	0	0	0	0	0	0
5.05	18.845	25.2583	3.78334	0.46312	0	-0.241593	-1.29597	-1.73701	-0.26018	0	0	0	0	0	0	0	0	0
5.05833	7.04657	13.8769	2.85649	0.564343	0	-0.190209	-1.01899	-2.00671	-0.41307	0	0	0	0	0	0	0	0	0
5.06667	0	0	0	0	0	0	0	0	0	0	0	0	0	0	0	0	0	0
